<?xml version="1.0" encoding="UTF-8" standalone="no"?>
<!-- Created with Inkscape (http://www.inkscape.org/) -->

<svg
   xmlns:dc="http://purl.org/dc/elements/1.1/"
   xmlns:cc="http://creativecommons.org/ns#"
   xmlns:rdf="http://www.w3.org/1999/02/22-rdf-syntax-ns#"
   xmlns:svg="http://www.w3.org/2000/svg"
   xmlns="http://www.w3.org/2000/svg"
   version="1.2"
   width="143"
   height="800"
   id="svg8762">
  <defs
     id="defs8764" />
  <metadata
     id="metadata8767">
    <rdf:RDF>
      <cc:Work
         rdf:about="">
        <dc:format>image/svg+xml</dc:format>
        <dc:type
           rdf:resource="http://purl.org/dc/dcmitype/StillImage" />
        <dc:title></dc:title>
      </cc:Work>
    </rdf:RDF>
  </metadata>
  <g
     transform="translate(0,-252.36218)"
     id="layer1">
    <rect
       width="18.265291"
       height="795.15143"
       x="-21.053097"
       y="254.72191"
       transform="scale(-1,1)"
       id="rect12386-5-6-8-4"
       style="fill:#ffffff;fill-opacity:1;stroke:#ffffff;stroke-width:3.68211889;stroke-linecap:round;stroke-linejoin:miter;stroke-miterlimit:4;stroke-opacity:1;stroke-dasharray:none" />
    <path
       d="m 130.27293,262.3319 
       c 0,0 11.50865,-0.54783 11.22093,1.71175 
       c -0.28784,2.25968 0,15.20115 0,15.20115 
       c 0,0 1.34909,2.22892 -5.94291,2.44969 
       c -7.29205,0.22076 -78.357875,0 -78.357875,0 
       l -8.455379,-2.01228 
       l 0,-15.63856 
       c 0,0 5.178926,-1.69083 7.104852,-1.69083 
       c1.926037,0 74.430382,-0.0209 74.430382,-0.0209 z"
       id="path12344-8-1-6-7-7"
       style="fill:#ffffff;fill-opacity:1;stroke:#ffffff;stroke-width:0.7167694;stroke-linecap:butt;stroke-linejoin:miter;stroke-miterlimit:4;stroke-opacity:1;stroke-dasharray:none" />
    <path
       d="m 125.56169,279.18586 
       c 0,0 16.33085,-1.35218 15.92255,4.22538 
       c -0.4083,5.57756 0,37.52181 0,37.52181 
       c 0,0 1.91445,5.50192 -8.43302,6.04678 
       c -10.34741,0.54486 -111.190366,0 -111.190366,0 
       l -11.9983572,-4.96706 
       l 0,-38.60153 
       c 0,0 7.3489092,-4.1737 10.0819332,-4.1737 
       c 2.732969,0 105.61726,-0.0516 105.61726,-0.0516 z"
       id="path12344-8-1-6-3"
       style="fill:#000000;fill-opacity:1;stroke:#ffffff;stroke-width:1.34145653;stroke-linecap:butt;stroke-linejoin:miter;stroke-miterlimit:4;stroke-opacity:1;stroke-dasharray:none" />
    <rect
       width="291.75919"
       height="99.198128"
       x="-2571.3711"
       y="338.52469"
       id="rect5823-1-7-7-2-3-7-1-9"
       style="font-size:28px;text-align:center;text-anchor:middle;fill:#ffffff;fill-opacity:1;stroke:none" />
    <rect
       width="291.75919"
       height="99.198128"
       x="-2571.3711"
       y="338.52469"
       id="rect5823-1-7-7-2-3-7-4-2-8"
       style="font-size:32px;fill:#000000;fill-opacity:1;stroke:none" />
    <path
       d="m 65.87032,385.57247 
       l -45.461945,0.18627 
       l 0,28.52246 
       l 29.838873,0 
       c 4.680594,-16.52844 22.351319,-26.22212 15.623072,-28.70873 z"
       id="path14842-62"
       style="fill:#ffffff;fill-opacity:1;stroke:none" />
  </g>
  <path
     d="m 129.70525,10.649868 
     c 0,0 11.48283,-0.546595 11.19575,1.707912 
     c -0.28719,2.254616 0,15.167046 0,15.167046 
     c 0,0 1.34607,2.223924 -5.92957,2.444196 
     c -7.2757,0.220271 -78.182088,0 -78.182088,0 
     l -8.43641,-2.007764 
     l 0,-15.603478 
     c 0,0 5.167307,-1.68703 7.088913,-1.68703 
     c 1.921715,0 74.263405,-0.02083 74.263405,-0.02083 z"
     id="path12344-8-1-6-7-7-4"
     style="fill:#ffffff;fill-opacity:1;stroke:#ffffff;stroke-width:0.71516138;stroke-linecap:butt;stroke-linejoin:miter;stroke-miterlimit:4;stroke-opacity:1;stroke-dasharray:none" />
  <path
     d="m 125.00458,27.466018 
     c 0,0 16.29421,-1.349142 15.88683,4.215903 
     c -0.40739,5.565045 0,37.43764 0,37.43764 
     c 0,0 1.91015,5.489575 -8.4141,6.03321 
     c -10.3242,0.543636 -110.940924,0 -110.940924,0 
     l -11.9714398,-4.955914 
     l 0,-38.514936 
     c 0,0 7.3324228,-4.164329 10.0593148,-4.164329 
     c 2.726838,0 105.380319,-0.05152 105.380319,-0.05152 z"
     id="path12344-8-1-6-3-7"
     style="fill:#000000;fill-opacity:1;stroke:#ffffff;stroke-width:1.33844709;stroke-linecap:butt;stroke-linejoin:miter;stroke-miterlimit:4;stroke-opacity:1;stroke-dasharray:none" />
  <rect
         width="291.75919"
         height="99.198128"
         x="-2571.3711"
         y="338.52469"
         id="rect5823-1-7-7-2-3-7-1-9-3"
         style="font-size:28px;text-align:center;text-anchor:middle;fill:#ffffff;fill-opacity:1;stroke:none" />
         
	<rect
         width="291.75919"
         height="99.198128"
         x="-2571.3711"
         y="338.52469"
         id="rect5823-1-7-7-2-3-7-4-2-8-9"
         style="font-size:32px;fill:#000000;fill-opacity:1;stroke:none" />
         
  <path
     d="m 19.95508,81.314889 0,46.847041 52.538751,0 C 102.11986,94.88742 138.75112,86.568737 132.47566,80.877032 z"
     id="path14840-9"
     style="fill:#ffffff;fill-opacity:1;stroke:none" />
     
  <path
     d="m 65.44712,133.61396 -45.359954,0.18586 0,28.45847 29.771931,0 c 4.670093,-16.49136 22.301175,-26.1633 15.588023,-28.64433 z"
     id="path14842-62-8"
     style="fill:#ffffff;fill-opacity:1;stroke:none" />
</svg>
