<?xml version="1.0" encoding="UTF-8" standalone="no"?>
<!-- Created with Inkscape (http://www.inkscape.org/) -->

<svg
   xmlns:dc="http://purl.org/dc/elements/1.1/"
   xmlns:cc="http://creativecommons.org/ns#"
   xmlns:rdf="http://www.w3.org/1999/02/22-rdf-syntax-ns#"
   xmlns:svg="http://www.w3.org/2000/svg"
   xmlns="http://www.w3.org/2000/svg"
   version="1.2"
   width="143"
   height="800"
   id="svg8762">
  <defs
     id="defs8764" />
  <metadata
     id="metadata8767">
    <rdf:RDF>
      <cc:Work
         rdf:about="">
        <dc:format>image/svg+xml</dc:format>
        <dc:type
           rdf:resource="http://purl.org/dc/dcmitype/StillImage" />
        <dc:title></dc:title>
      </cc:Work>
    </rdf:RDF>
  </metadata>

    <path
       d="m 117.56169,5 
       c 0,0 16.33085,-1.35218 15.92255,4.22538 
       c -0.4083,5.57756 0,37.52181 0,37.52181 
       c 0,0 1.91445,5.50192 -8.43302,6.04678 
       c -10.34741,0.54486 -111.190366,0 -111.190366,0 
       l -11.9983572,-4.96706 
       l 0,-38.60153 
       c 0,0 7.3489092,-4.1737 10.0819332,-4.1737 
       c 2.732969,0 105.61726,-0.0516 105.61726,-0.0516 z"
       id="path12344-8-1-6-3"
       style="fill:#000000;fill-opacity:1;stroke:#ffffff;stroke-width:2;stroke-linecap:butt;stroke-linejoin:miter;stroke-miterlimit:4;stroke-opacity:1;stroke-dasharray:none" />

	<path
       d="m 105,55.57247 
       l -100.461945,0.18627 
       l 0,28.52246 
       l 50,0 
       c 20.680594,-20.52844 45,-17.22212 55.623072,-28.70873 z"
       id="path14842-62"
       style="fill:#ffffff;fill-opacity:1;stroke:none" />

    <path
       d="m 55,87
       l -50.461945,0.18627 
       l 0,18.52246 
       l 20.838873,0 
       c 4.680594,-10 22.351319,-16 15.623072,-18.70873 z"
       id="path14842-62"
       style="fill:#ffffff;fill-opacity:1;stroke:none" />

</svg>
