<?xml version="1.0" encoding="UTF-8" standalone="no"?>
<!-- Created with Inkscape (http://www.inkscape.org/) -->

<svg
   xmlns:dc="http://purl.org/dc/elements/1.1/"
   xmlns:cc="http://creativecommons.org/ns#"
   xmlns:rdf="http://www.w3.org/1999/02/22-rdf-syntax-ns#"
   xmlns:svg="http://www.w3.org/2000/svg"
   xmlns="http://www.w3.org/2000/svg"
   version="1.2"
   width="40"
   height="40"
   id="svg2">
  <metadata
     id="metadata10">
    <rdf:RDF>
      <cc:Work
         rdf:about="">
        <dc:format>image/svg+xml</dc:format>
        <dc:type
           rdf:resource="http://purl.org/dc/dcmitype/StillImage" />
        <dc:title></dc:title>
      </cc:Work>
    </rdf:RDF>
  </metadata>
  <defs
     id="defs8" />
  <path
     d="m 19.422756,33.762176 
     c -4.302603,0 -12.8607047,-6.1827 -12.8607047,-12.693027 
     l -5.6670453,0.02649 
     c -0.51687721,0.181612 -0.65231105,0.390479 -0.37908373,0.844544 
     l 4.82752773,4.720794 
     l 0.4490083,-0.396298 
     l 8.6235037,8.65036 
     l -0.435537,0.406235 
     l 4.354015,4.365649 
     c 0.566798,0.221732 1.024648,0.143789 1.128321,-0.479023 z"
     id="path16446-1-9-7-1"
     style="fill:#ffffff;fill-opacity:1;stroke:none" />
  <path
     d="m 6.6019971,19.681662 
     c 0,-4.302606 6.1826989,-12.8606877 12.6930109,-12.8606877 
     l -0.02643,-5.667063 
     C 19.086958,0.6370301 18.878094,0.50160089 18.424034,0.77482529 
     l -4.7208,4.82753101 
     l 0.396295,0.4490006 
     l -8.6503401,8.6235091 
     l -0.4062526,-0.43554 
     l -4.36565461,4.354011 
     c -0.22172853,0.566816 -0.14378535,1.024649 0.47902651,1.128321 z"
     id="path16446-1-9-7-1-9"
     style="fill:#ffffff;fill-opacity:1;stroke:none" />
  <path
     d="m 33.436358,20.737682 
     c 0,4.302589 -6.182698,12.860689 -12.693031,12.860689 
     l 0.02644,5.667045 
     c 0.181607,0.516882 0.39049,0.652328 0.844541,0.379086 
     l 4.720809,-4.827532 
     l -0.396316,-0.449 
     l 8.650362,-8.623509 
     l 0.406232,0.435539 
     l 4.365674,-4.353994 
     c 0.221728,-0.566815 0.143765,-1.024666 -0.479046,-1.128337 z"
     id="path16446-1-9-7-1-48"
     style="fill:#ffffff;fill-opacity:1;stroke:none" />
  <path
     d="m 20.488173,6.8019834 
     c 4.302613,0 12.860687,6.1826826 12.860687,12.6930096 
     l 5.667065,-0.02647 
     c 0.516868,-0.181613 0.65231,-0.390497 0.379083,-0.844544 
     l -4.827547,-4.720811 
     l -0.448979,0.39632 
     l -8.623523,-8.6503608 
     l 0.435556,-0.4062341 
     l -4.354014,-4.36564945 
     c -0.56682,-0.2217485 -1.024649,-0.1437895 -1.128343,0.47902345 z"
     id="path16446-1-9-7-1-9-8"
     style="fill:#ffffff;fill-opacity:1;stroke:none" />
</svg>
