<?xml version="1.0" encoding="UTF-8" standalone="no"?>
<!-- Created with Inkscape (http://www.inkscape.org/) -->

<svg
   xmlns:dc="http://purl.org/dc/elements/1.1/"
   xmlns:cc="http://creativecommons.org/ns#"
   xmlns:rdf="http://www.w3.org/1999/02/22-rdf-syntax-ns#"
   xmlns:svg="http://www.w3.org/2000/svg"
   xmlns="http://www.w3.org/2000/svg"
   version="1.2"
   width="65"
   height="800"
   id="svg8762">
  <defs
     id="defs8764" />
  <metadata
     id="metadata8767">
    <rdf:RDF>
      <cc:Work
         rdf:about="">
        <dc:format>image/svg+xml</dc:format>
        <dc:type
           rdf:resource="http://purl.org/dc/dcmitype/StillImage" />
        <dc:title></dc:title>
      </cc:Work>
    </rdf:RDF>
  </metadata>
  <path
     d="m 12.485781,749.47134 
     c 0,0 -9.3645508,-1.3467 -9.1304508,4.2085 
     c 0.23416,5.5552 0,37.3712 0,37.3712 
     c 0,0 -1.09782,5.4799 4.83573,6.0226 
     c 5.9335508,0.5427 63.7596908,0 50,0 
     l 6.88027,-4.9473 
     l 0,-38.4465 
     c 0,0 -4.21407,-4.157 -5.78129,-4.157 
     c -1.56717,0 -60.56395,-0.052 -42.56395,-0.052 z"
     id="path12344-8-0-7-2-82"
     style="fill:#000000;fill-opacity:1;stroke:#ffffff;stroke-width:2;stroke-linecap:butt;stroke-linejoin:miter;stroke-miterlimit:4;stroke-opacity:1;stroke-dasharray:none" />
  <path
     d="m 66.058451,745.93717 
     l 0,-20.60444 
     l -23.10779,0 
     c -13.0302,14.63489 -29.14146,18.29369 -26.38137,20.79694 z"
     id="path14840-18-1"
     style="fill:#ffffff;fill-opacity:1;stroke:none" />
  <path
     d="m 46.050001,722.93478 
     l 19.95034,-0.0822 
     l 0,-12.51675 
     l -13.09437,0 
     c -2.05404,7.25333 -9.80858,11.50728 -6.85597,12.59848 z"
     id="path14842-6-1"
     style="fill:#ffffff;fill-opacity:1;stroke:none" />
  <path
     d="m 11.980731,6.27864 
     c 0,0 -9.3645408,-1.34669 -9.1304308,4.20847 
     c 0.23415,5.55519 0,37.37121 0,37.37121 
     c 0,0 -1.09782,5.4799 4.83574,6.02257 
     c 5.9335408,0.54267 63.7596908,0 50,0 
     l 6.88027,-4.94717 
     l 0,-38.44661 
     c 0,0 -4.21407,-4.157 -5.78131,-4.157 
     c -1.56718,0 -60.56396,-0.0514 -40.56396,-0.0514 z"
     id="path12344-8-0-7-2-8-1"
     style="fill:#000000;fill-opacity:1;stroke:#ffffff;stroke-width:2;stroke-linecap:butt;stroke-linejoin:miter;stroke-miterlimit:4;stroke-opacity:1;stroke-dasharray:none" />
  <path
     d="m 64.842631,57.39407 
     l 0,20.60439 
     l -23.1078,0 
     C 28.704651,63.36355 12.593381,59.7048 15.353461,57.20148 z"
     id="path14840-18-9-2"
     style="fill:#ffffff;fill-opacity:1;stroke:none" />
  <path
     d="m 44.834181,80.39641
     l 19.95034,0.0817 
     l 0,12.51668 
     l -13.09437,0 
     c -2.05404,-7.25327 -9.80858,-11.50722 -6.85597,-12.59841 z"
     id="path14842-6-0-1"
     style="fill:#ffffff;fill-opacity:1;stroke:none" />
     
  <rect
     width="17"
     height="620"
     x="53"
     y="92"
     style="fill:#ffffff;fill-opacity:1" />
</svg>
